<svg width="1631" height="972" viewBox="0 0 1631 972" fill="none" xmlns="http://www.w3.org/2000/svg">
<circle cx="1299" cy="171" r="73" fill="white" fill-opacity="0.15"/>
<circle cx="1438.5" cy="108.5" r="23.5" fill="white" fill-opacity="0.15"/>
<circle cx="1520.5" cy="204.5" r="33.5" fill="white" fill-opacity="0.2"/>
<circle cx="1611" cy="129" r="20" fill="white" fill-opacity="0.2"/>
<path d="M132.442 638.416C133.138 666.021 156.08 687.836 183.686 687.141C211.291 686.445 233.106 663.503 232.41 635.897L132.442 638.416ZM841.737 350.965C862.5 369.171 894.09 367.098 912.296 346.334C930.501 325.571 928.428 293.981 907.665 275.776L841.737 350.965ZM232.41 635.897C227.793 452.639 317.555 326.857 435.613 273.183C554.16 219.286 708.97 234.552 841.737 350.965L907.665 275.776C747.543 135.377 551.134 110.812 394.225 182.149C236.826 253.71 126.895 418.227 132.442 638.416L232.41 635.897Z" fill="white" fill-opacity="0.3"/>
<circle cx="980.897" cy="617.906" r="48.6863" transform="rotate(-25.0661 980.897 617.906)" fill="white" fill-opacity="0.3"/>
<circle cx="982.258" cy="449.774" r="39.6284" transform="rotate(-25.0661 982.258 449.774)" fill="white" fill-opacity="0.3"/>
</svg>
