<svg width="340" height="335" viewBox="0 0 340 335" fill="none" xmlns="http://www.w3.org/2000/svg">
<path d="M170 327.906C79.9776 327.906 7 256.069 7 167.453C7 78.837 79.9776 7 170 7C260.022 7 333 78.837 333 167.453C333 256.069 260.022 327.906 170 327.906Z" fill="url(#paint0_linear)" fill-opacity="0.3" stroke="#F2F5FA" stroke-width="12.26" stroke-miterlimit="10"/>
<mask id="mask0" mask-type="alpha" maskUnits="userSpaceOnUse" x="13" y="11" width="314" height="310">
<path d="M170 320.836C83.2913 320.836 13 251.664 13 166.336C13 81.0077 83.2913 11.8359 170 11.8359C256.709 11.8359 327 81.0077 327 166.336C327 251.664 256.709 320.836 170 320.836Z" fill="url(#paint1_linear)"/>
</mask>
<g mask="url(#mask0)">
<mask id="mask1" mask-type="alpha" maskUnits="userSpaceOnUse" x="22" y="90" width="311" height="579">
<rect x="22.0757" y="90.8359" width="310.924" height="578" fill="#C4C4C4"/>
</mask>
<g mask="url(#mask1)">
<path d="M65.5289 316.902C65.5565 316.773 65.6166 316.655 65.702 316.564C67.4213 314.651 89.3449 279.69 89.3449 279.69C89.3449 279.69 90.4987 275.786 92.368 270.712C91.7688 269.837 91.3188 268.844 91.0411 267.784C90.9402 267.335 90.8669 266.879 90.8219 266.418C90.8219 266.275 90.7296 266.158 90.695 266.015C90.2942 264.25 90.3341 262.395 90.8103 260.654C90.9385 261.101 91.0967 261.536 91.2834 261.955C91.7175 260.439 92.2979 258.982 93.0142 257.609C95.9219 251.962 100.076 247.2 103.134 241.697C107.764 233.145 109.604 223.041 108.338 213.124C108.338 213.631 108.338 214.152 108.338 214.659C108.222 212.692 107.991 210.736 107.645 208.804C107.163 206.605 106.519 204.454 105.718 202.376C102.972 195.285 98.5297 189.105 95.8296 181.988C94.9236 179.587 94.2355 177.089 93.7758 174.532C92.8243 170.262 92.4777 165.848 92.7488 161.456C92.7488 162.497 92.8988 163.537 93.0373 164.565C93.3291 154.004 97.1113 143.948 103.641 136.37C113.069 125.688 126.603 121.537 139.55 119.351C144.99 118.635 150.186 116.399 154.666 112.845C159.639 109.215 166.066 108.343 171.882 109.137C178.566 109.952 184.776 113.415 189.409 118.909C195.559 126.533 198.225 137.333 205.402 143.76C209.752 147.664 215.267 149.485 220.333 152.14C225.398 154.794 230.187 158.645 231.814 164.344C231.814 164.344 231.814 164.266 231.814 164.227V164.552L231.883 164.761C233.568 171.5 230.314 178.357 228.618 185.084C226.852 192.045 226.737 199.397 226.644 206.592C226.518 215.388 226.402 224.196 226.529 233.005C226.587 236.466 226.691 239.966 226.921 243.414C229.652 244.345 232.305 245.547 234.849 247.005C237.433 248.905 247.103 260.68 247.103 260.68L266.015 342.157L265.761 342.482L266.015 343.588L265.057 343.341C262.38 346.594 254.384 355.858 245.753 361.635L244.945 377.613C244.945 377.613 243.976 393.643 230.902 400.266C230.602 405.821 229.668 428.383 233.995 437.322C236.991 443.852 238.4 451.161 238.079 458.504C238.079 458.504 236.568 472.062 238.287 479.192C239.291 483.958 239.366 488.912 238.506 493.713V493.713C238.506 493.713 238.506 495.287 238.506 497.994C238.506 512.423 238.356 558.666 238.506 563.896C238.726 570.077 238.506 661.481 238.506 661.481C238.506 661.481 239.579 707.164 243.018 719.538C246.456 731.911 245.591 772.884 245.591 772.884C245.591 772.884 247.749 821.69 240.122 831.318C240.122 831.747 240.191 832.19 240.202 832.619C240.202 832.814 240.202 833.035 240.202 833.231C240.295 836.939 239.66 840.881 236.833 842.091C231.064 844.59 223.437 852.084 221.994 854.231C220.552 856.378 212.163 861.725 201.225 860.294C194.372 859.426 187.476 859.069 180.582 859.227V859.227C180.582 859.227 176.266 858.342 177.662 852.292C178.562 848.519 181.932 842.716 184.332 838.904C183.893 839.034 183.466 839.138 183.063 839.229L182.647 839.32H182.324C182.147 839.332 181.97 839.332 181.793 839.32H181.563C181.348 839.34 181.131 839.34 180.916 839.32V839.32C178.02 839.008 167.22 844.681 165.293 848.428C163.366 852.175 156.57 855.025 151.446 855.74C148.4 856.157 140.715 855.454 134.265 854.517C131.017 854.139 127.8 853.478 124.642 852.539C123.119 851.889 122.796 849.807 123.234 847.465C123.752 844.491 125.162 841.808 127.227 839.866C129.096 838.37 131.565 834.428 133.388 831.201L133.873 830.329C130.654 826.868 124.838 815.548 123.073 813.206C120.926 810.357 126.534 706.149 126.534 706.149V653.909L117.938 604.465L111.926 578.3L106.768 538.797C106.768 538.797 97.7451 492.659 100.526 488.131C100.526 488.04 102.834 440.536 105.257 429.125C106.307 424.037 106.041 412.587 105.418 401.45C104.767 400.72 104.313 399.798 104.109 398.789C103.905 397.78 103.959 396.726 104.264 395.751C104.437 395.084 104.661 394.435 104.934 393.812C104.934 393.617 104.934 393.409 104.934 393.213C99.9492 390.627 94.7405 388.63 89.3911 387.254C80.7947 385.355 82.9409 380.358 82.9409 380.358C82.9409 380.358 81.0024 376.078 79.7216 373.462C78.4408 370.847 79.5024 347.765 79.7216 345.865C79.8024 345.098 80.3331 340.856 80.9447 336.042C78.1869 333.83 74.5984 331.084 70.6867 328.482C63.2442 323.512 64.9174 318.268 65.5289 316.902ZM177.686 646.778C177.686 646.778 184.136 665.332 181.551 670.082C178.966 674.831 181.978 692.461 181.978 692.461L184.136 718.627C184.136 718.627 190.147 767.159 188.001 778.57C186.317 787.522 185.693 814.26 185.497 825.411C185.645 825.476 185.788 825.554 185.924 825.645L186.213 825.814C185.22 821.429 185.636 812.556 190.563 794.704L190.978 720.969C190.978 720.969 191.74 635.797 185.774 626.272C179.809 616.748 177.697 600.575 177.697 600.575C177.697 600.575 178.989 623.904 179.832 630.085C180.674 636.265 177.686 646.778 177.686 646.778ZM189.697 830.056C189.755 830.212 189.824 830.368 189.87 830.511L190.194 830.043C190.029 830.061 189.863 830.065 189.697 830.056V830.056Z" fill="url(#paint2_linear)"/>
<path d="M187.805 121.137C193.886 128.801 196.516 139.666 203.601 146.145C207.905 150.049 213.351 151.909 218.359 154.564C223.367 157.218 228.329 161.264 229.817 167.276C231.479 174.041 228.271 180.95 226.586 187.716C224.844 194.716 224.74 202.029 224.636 209.354C224.521 218.215 224.394 227.076 224.533 235.936C224.74 249.741 225.756 264.184 232.252 275.881C208.794 284.3 183.847 285.445 159.246 286.524C154.519 286.905 149.77 286.77 145.065 286.121C140.988 285.205 136.956 284.054 132.984 282.673C125.13 280.33 117.038 279.162 108.914 279.199C105.372 279.199 101.76 279.446 98.3446 278.405C94.9291 277.365 91.6405 274.697 90.7174 270.846C89.8981 267.385 91.0982 263.703 92.6674 260.593C95.5291 254.92 99.5907 250.184 102.66 244.589C105.793 238.679 107.652 232.022 108.087 225.154C108.522 218.286 107.521 211.399 105.164 205.047C102.441 197.904 98.0561 191.685 95.3791 184.529C92.6371 176.845 91.908 168.436 93.2784 160.299C94.6488 152.162 98.061 144.64 103.11 138.625C112.422 127.877 125.784 123.714 138.569 121.502C143.952 120.785 149.088 118.547 153.5 114.996C158.404 111.353 164.762 110.468 170.508 111.275C177.137 112.112 183.277 115.613 187.805 121.137Z" fill="#3F3D56"/>
<g opacity="0.1">
<path opacity="0.1" d="M104.806 197.538C107.159 203.808 108.167 210.615 107.749 217.407C107.49 212.55 106.495 207.78 104.806 203.302C102.095 196.159 97.7098 189.94 95.0328 182.784C92.8444 176.808 91.9238 170.339 92.3443 163.891C92.5822 168.41 93.491 172.853 95.0328 177.033C97.7098 184.189 102.095 190.395 104.806 197.538Z" fill="black"/>
<path opacity="0.1" d="M224.287 207.585C224.218 212.686 224.149 217.799 224.137 222.9C224.137 215.874 224.195 208.861 224.287 201.847C224.38 194.574 224.495 187.21 226.237 180.197C227.391 175.747 229.099 171.232 229.699 166.743C230.726 173.118 227.807 179.585 226.237 185.948C224.495 192.896 224.38 200.312 224.287 207.585Z" fill="black"/>
<path opacity="0.1" d="M97.9507 270.963C101.412 272.017 104.966 271.782 108.509 271.756C116.626 271.698 124.715 272.844 132.567 275.165C136.54 276.541 140.572 277.687 144.648 278.6C149.356 279.26 154.109 279.399 158.841 279.017C182.61 277.963 206.715 276.831 229.481 269.167C230.157 270.869 230.928 272.52 231.789 274.111C208.33 282.517 183.384 283.675 158.795 284.755C154.063 285.137 149.309 284.998 144.602 284.338C140.54 283.434 136.523 282.292 132.567 280.916C124.731 278.587 116.658 277.428 108.555 277.468C105.012 277.468 101.412 277.716 97.9968 276.662C94.5814 275.608 91.2928 272.966 90.3697 269.115C89.9808 267.331 90.0207 265.463 90.4852 263.702C91.5121 267.346 94.6852 269.883 97.9507 270.963Z" fill="black"/>
</g>
<path d="M132.13 255.541C132.984 257.701 136.584 276.36 137.438 278.272C138.292 280.185 142.954 310.801 143.381 312.518C143.808 314.236 174.108 305.336 174.108 305.336L192.351 288.096L211.101 267.056C211.101 267.056 211.655 248.073 197.843 241.984C196.905 241.568 195.941 241.229 194.959 240.969C178.205 236.428 179.889 178.983 179.889 178.983L145.504 195.728C145.504 195.728 151.873 229.246 151.654 235.712C151.596 237.885 150.085 239.238 148.111 240.058C145.061 241.037 141.885 241.424 138.719 241.203C138.719 241.203 131.276 253.395 132.13 255.541Z" fill="#FBBEBE"/>
<path d="M70.57 318.492L65.6891 319.936C65.6891 319.936 62.0775 326.13 70.57 331.893C75.9626 335.587 81.1388 339.668 86.0666 344.111L111.163 352.725L115.998 335.615L92.6436 315.629L70.57 318.492Z" fill="#4285F4"/>
<path opacity="0.1" d="M70.57 318.492L65.6891 319.936C65.6891 319.936 62.0775 326.13 70.57 331.893C75.9626 335.587 81.1388 339.668 86.0666 344.111L111.163 352.725L115.998 335.615L92.6436 315.629L70.57 318.492Z" fill="black"/>
<path opacity="0.1" d="M160.998 216.521C142.244 216.521 127.04 199.377 127.04 178.229C127.04 157.08 142.244 139.936 160.998 139.936C179.753 139.936 194.957 157.08 194.957 178.229C194.957 199.377 179.753 216.521 160.998 216.521Z" fill="black"/>
<path d="M160.998 213.644C142.244 213.644 127.04 196.5 127.04 175.351C127.04 154.203 142.244 137.059 160.998 137.059C179.753 137.059 194.957 154.203 194.957 175.351C194.957 196.5 179.753 213.644 160.998 213.644Z" fill="#FBBEBE"/>
<path opacity="0.1" d="M132.13 255.54C132.984 257.7 136.584 276.358 137.438 278.271C138.292 280.184 142.954 310.799 143.381 312.517C143.808 314.234 174.108 305.335 174.108 305.335L192.351 288.095L211.101 267.055C211.101 267.055 211.655 248.072 197.843 241.983L163.55 286.442L148.111 240.057C145.061 241.036 141.885 241.423 138.719 241.202C138.719 241.202 131.276 253.393 132.13 255.54Z" fill="black"/>
<path d="M163.551 287.873L198.652 242.333C200.707 240.854 203.055 239.974 205.486 239.772C207.917 239.57 210.354 240.052 212.579 241.175C220.437 245.013 230.199 248.123 232.749 250.036C235.299 251.948 244.853 263.789 244.853 263.789L216.398 347.725L228.93 403.01C228.93 403.01 227.014 431.258 231.895 441.55C234.867 448.13 236.259 455.473 235.934 462.849C235.934 462.849 234.445 476.498 236.141 483.667C237.132 488.461 237.207 493.437 236.361 498.266C236.361 498.266 135.523 503.054 122.796 498.266C115.427 495.441 107.81 493.518 100.076 492.528C100.076 492.528 102.384 444.646 104.692 433.157C107 421.668 102.776 377.872 102.776 377.872L105.534 330.953L88.9876 282.811C88.9876 282.811 97.9532 251.948 107.3 248.839C107.3 248.839 124.273 244.285 127.885 242.138C131.496 239.991 142.112 238.065 142.112 238.065L147.685 240.173L163.551 287.873Z" fill="#4285F4"/>
<path d="M112.032 326.517L185.894 320.853C187.763 320.71 189.382 322.302 189.509 324.41L197.439 455.911C197.566 458.019 196.154 459.844 194.284 459.987L120.422 465.651C118.553 465.794 116.935 464.202 116.808 462.094L108.878 330.593C108.751 328.485 110.163 326.66 112.032 326.517Z" fill="#3F3D56"/>
<path opacity="0.1" d="M158.404 165.773C159.038 159.502 157.677 153.18 154.562 147.935C154.932 153.192 153.614 158.424 150.847 162.676C148.081 166.927 144.05 169.916 139.492 171.095C139.881 170.714 140.159 170.21 140.288 169.648C140.418 169.086 140.394 168.492 140.219 167.946C137.854 170.965 136.042 174.543 133.365 177.197C130.688 179.852 126.672 181.439 123.522 179.552C119.241 176.95 119.195 170.093 120.303 164.758C122.68 153.398 127.557 142.895 134.484 134.221C136.212 131.599 138.456 129.464 141.038 127.983C143.621 126.502 146.472 125.716 149.369 125.686C155.923 125.113 162.731 125.764 168.604 129.081C171.909 131.115 175.005 133.554 177.835 136.355L193.99 151.214C195.544 152.476 196.874 154.056 197.913 155.872C198.606 157.389 199.022 159.049 199.136 160.751C199.548 165.617 198.75 170.517 196.83 174.9C194.91 179.283 191.944 182.976 188.266 185.564C188.344 181.717 187.406 177.932 185.571 174.688C183.736 171.445 181.088 168.89 177.962 167.348C177.473 167.809 177.076 168.384 176.8 169.032C176.523 169.681 176.373 170.389 176.358 171.108L172.954 164.264C172.448 163.019 171.65 161.953 170.647 161.18C168.547 159.879 165.927 161.415 164.139 163.249C162.35 165.084 160.608 167.374 158.208 167.66L158.116 157.472" fill="black"/>
<path d="M158.403 164.342C159.039 158.066 157.677 151.739 154.56 146.49C155.599 156.899 148.641 167.647 139.479 169.65C139.868 169.273 140.147 168.771 140.276 168.21C140.406 167.65 140.382 167.059 140.206 166.515C137.841 169.533 136.029 173.098 133.352 175.766C130.675 178.433 126.66 180.007 123.509 178.108C119.229 175.506 119.182 168.649 120.29 163.327C122.667 151.966 127.544 141.464 134.471 132.789C136.621 129.835 139.329 127.461 142.398 125.841C144.62 124.915 146.955 124.379 149.322 124.254C155.876 123.681 162.684 124.319 168.557 127.637C171.86 129.68 174.955 132.123 177.788 134.923L193.942 149.782C195.499 151.042 196.83 152.622 197.865 154.44C198.56 155.957 198.976 157.617 199.088 159.319C199.5 164.184 198.701 169.081 196.781 173.462C194.861 177.843 191.896 181.533 188.219 184.119C188.294 180.274 187.354 176.49 185.52 173.247C183.685 170.004 181.039 167.448 177.915 165.903C177.427 166.366 177.032 166.941 176.755 167.589C176.479 168.237 176.327 168.944 176.311 169.663L172.918 162.845C172.415 161.598 171.617 160.531 170.611 159.762C168.511 158.461 165.891 159.996 164.103 161.831C162.314 163.665 160.572 165.942 158.172 166.241L158.08 156.041" fill="#3F3D56"/>
<path opacity="0.1" d="M238.725 265.601L244.887 265.237L263.557 347.208C263.557 347.208 243.398 341.457 234.71 347.208C226.021 352.959 210.086 354.143 210.086 354.143L216.029 288.8L238.725 265.601Z" fill="black"/>
<path d="M238.725 264.156L244.887 263.791L263.557 345.763C263.557 345.763 243.398 340.012 234.71 345.763C226.021 351.514 210.086 352.698 210.086 352.698L216.029 287.355L238.725 264.156Z" fill="#4285F4"/>
<path opacity="0.1" d="M97.5239 282.114L89.0429 284.273C89.0429 284.273 67.3846 319.404 65.6884 321.369C63.9922 323.334 73.7656 330.477 77.7926 330.477C81.8197 330.477 101.562 333.079 107.297 339.09C113.032 345.102 110.643 314.85 110.643 314.161C110.643 313.471 103.524 294.383 103.524 294.383L97.5239 282.114Z" fill="black"/>
<path d="M97.5239 280.682L89.0429 282.829C89.0429 282.829 67.3846 318.024 65.6884 319.937C63.9922 321.85 73.7656 329.045 77.7926 329.045C81.8197 329.045 101.562 331.647 107.297 337.658C113.032 343.67 110.643 313.418 110.643 312.729C110.643 312.039 103.478 292.886 103.478 292.886L97.5239 280.682Z" fill="#4285F4"/>
<g opacity="0.1">
<path opacity="0.1" d="M154.618 146.609C154.668 145.611 154.649 144.61 154.56 143.616C156.317 146.589 157.526 149.929 158.114 153.44V156.458C158.114 156.458 158.114 156.393 158.114 156.354V157.07C158.114 159.178 158.114 161.298 158.172 163.406H158.333V164.382C158.333 164.044 158.334 163.719 158.391 163.38C160.699 162.964 162.349 160.778 164.068 159.034C165.787 157.291 168.476 155.625 170.576 156.966C171.582 157.735 172.381 158.802 172.884 160.049L176.311 166.867C176.326 166.15 176.477 165.444 176.753 164.798C177.03 164.152 177.426 163.58 177.915 163.12C181.04 164.662 183.689 167.217 185.524 170.461C187.358 173.704 188.297 177.49 188.219 181.336C191.371 179.108 194.009 176.067 195.913 172.463C197.817 168.859 198.933 164.796 199.169 160.609C199.37 165.284 198.461 169.934 196.536 174.081C194.611 178.228 191.74 181.72 188.219 184.198C188.294 180.353 187.354 176.569 185.52 173.326C183.685 170.083 181.039 167.527 177.915 165.982C177.427 166.446 177.032 167.02 176.755 167.669C176.479 168.317 176.327 169.024 176.311 169.743L172.918 162.925C172.415 161.677 171.617 160.61 170.611 159.841C168.511 158.54 165.891 160.075 164.103 161.91C162.314 163.745 160.572 166.021 158.172 166.321C158.172 162.99 158.141 159.668 158.08 156.354C157.514 152.878 156.337 149.564 154.618 146.609V146.609Z" fill="black"/>
<path opacity="0.1" d="M158.519 159.713C158.462 158.828 158.369 157.943 158.254 157.111L158.127 153.519C158.474 155.559 158.606 157.638 158.519 159.713Z" fill="black"/>
<path opacity="0.1" d="M123.51 175.234C126.66 177.133 130.675 175.546 133.352 172.892C136.029 170.237 137.841 166.659 140.206 163.641C140.381 164.187 140.405 164.78 140.276 165.342C140.146 165.904 139.868 166.409 139.479 166.789C139.71 166.789 139.929 166.659 140.149 166.594C137.841 169.587 136.006 173.1 133.352 175.702C130.698 178.304 126.66 179.944 123.51 178.044C120.36 176.144 119.46 171.695 119.737 167.362C119.944 170.771 121.029 173.724 123.51 175.234Z" fill="black"/>
<path opacity="0.1" d="M140.218 166.567C144.077 165.382 147.522 162.894 150.091 159.438C152.661 155.983 154.233 151.724 154.595 147.233C155.253 157.447 148.422 167.686 139.479 169.651C139.86 169.278 140.134 168.786 140.266 168.236C140.397 167.687 140.381 167.106 140.218 166.567V166.567Z" fill="black"/>
</g>
</g>
</g>
<defs>
<linearGradient id="paint0_linear" x1="-235316" y1="218836" x2="-253657" y2="218836" gradientUnits="userSpaceOnUse">
<stop stop-color="#80B2FF"/>
<stop offset="0.14" stop-color="#69A1FB"/>
<stop offset="0.35" stop-color="#4D8DF6"/>
<stop offset="0.47" stop-color="#4285F4"/>
<stop offset="0.7" stop-color="#3575DF"/>
<stop offset="1" stop-color="#215DBE"/>
</linearGradient>
<linearGradient id="paint1_linear" x1="-226648" y1="210722" x2="-244314" y2="210722" gradientUnits="userSpaceOnUse">
<stop stop-color="#80B2FF"/>
<stop offset="0.14" stop-color="#69A1FB"/>
<stop offset="0.35" stop-color="#4D8DF6"/>
<stop offset="0.47" stop-color="#4285F4"/>
<stop offset="0.7" stop-color="#3575DF"/>
<stop offset="1" stop-color="#215DBE"/>
</linearGradient>
<linearGradient id="paint2_linear" x1="165.478" y1="860.528" x2="165.478" y2="108.929" gradientUnits="userSpaceOnUse">
<stop stop-color="#808080" stop-opacity="0.25"/>
<stop offset="0.54" stop-color="#808080" stop-opacity="0.12"/>
<stop offset="1" stop-color="#808080" stop-opacity="0.1"/>
</linearGradient>
</defs>
</svg>
