<svg width="340" height="334" viewBox="0 0 340 334" fill="none" xmlns="http://www.w3.org/2000/svg">
<path d="M170 327.277C79.9776 327.277 7 255.44 7 166.824C7 78.2081 79.9776 6.37109 170 6.37109C260.022 6.37109 333 78.2081 333 166.824C333 255.44 260.022 327.277 170 327.277Z" fill="url(#paint0_linear)" fill-opacity="0.3" stroke="#F2F5FA" stroke-width="12.26" stroke-miterlimit="10"/>
<mask id="mask0" mask-type="alpha" maskUnits="userSpaceOnUse" x="13" y="12" width="314" height="310">
<path d="M170 321.207C83.2913 321.207 13 252.035 13 166.707C13 81.3788 83.2913 12.207 170 12.207C256.709 12.207 327 81.3788 327 166.707C327 252.035 256.709 321.207 170 321.207Z" fill="url(#paint1_linear)"/>
</mask>
<g mask="url(#mask0)">
<path d="M291.064 365.973C291.064 365.973 286.387 365.324 286.387 358.56C286.387 351.796 283.039 339.13 283.039 339.13C283.039 339.13 280.142 317.091 276.141 313.596C272.141 310.102 267 289.586 267 289.586C267 289.586 266.121 278.454 264.329 276.058C262.536 273.662 260.114 267.795 256.541 259.425C252.967 251.056 238.104 245.319 238.104 245.319C238.104 245.319 211.166 229.784 203.532 224.72C202.834 224.3 202.182 223.81 201.585 223.256C200.256 221.533 194.462 221.497 194.462 221.497C193.857 217.685 193.275 213.317 193.085 209.362C193.085 208.937 193.085 208.512 193.085 208.087C201.597 203.084 208.009 195.196 211.142 185.871C211.285 185.423 211.403 184.962 211.534 184.502C212.055 184.342 212.536 184.074 212.945 183.716C213.354 183.358 213.683 182.918 213.908 182.424C214.585 180.902 214.609 179.131 215.464 177.703C216.461 176.026 218.36 175.129 219.856 173.878C223.632 170.679 224.605 165.308 224.427 160.433C224.308 156.466 223.667 152.476 223.916 148.545C223.916 148.215 223.916 147.884 223.988 147.554C224.059 146.975 224.142 146.373 224.249 145.807C224.831 142.879 226.101 140.117 226.813 137.213C227.526 134.309 227.597 131.039 225.935 128.537C223.501 124.865 218.432 124.134 213.98 123.815C208.934 123.39 204.482 123.933 201.193 119.766C199.685 117.59 197.985 115.551 196.112 113.675C195.447 113.061 188.989 109.13 188.989 108.882C182.67 105.961 175.501 105.412 168.807 107.336C165.447 108.304 162.301 109.886 158.894 110.676C151.581 112.4 143.151 110.535 136.93 114.702C133.464 117.063 131.386 120.828 129.439 124.476C127.856 127.482 126.25 130.492 124.619 133.506C121.984 138.453 119.324 143.481 118.22 148.959C117.989 150.155 117.842 151.366 117.781 152.583V152.583C117.781 153.019 117.781 153.456 117.781 153.893C117.781 154.082 117.781 154.271 117.781 154.459C117.781 154.861 117.781 155.262 117.852 155.64C117.923 156.018 117.852 156.124 117.935 156.372C118.018 156.62 118.042 157.174 118.113 157.552C118.185 157.93 118.327 158.603 118.469 159.11C118.469 159.335 118.612 159.547 118.683 159.771C118.754 159.996 118.944 160.562 119.099 160.952C119.253 161.341 119.265 161.365 119.36 161.566C119.538 161.979 119.752 162.38 119.965 162.746C120.06 162.9 120.132 163.053 120.227 163.207C120.552 163.759 120.917 164.288 121.319 164.788C123.848 167.94 127.599 169.947 130.365 172.898C130.365 173.016 130.365 173.134 130.365 173.252C130.365 173.571 130.365 173.89 130.365 174.22C130.535 180.803 132.319 187.244 135.563 192.984C138.808 198.724 143.414 203.589 148.981 207.155C148.981 207.603 149.04 208.064 149.064 208.524C149.295 212.024 149.251 215.537 148.933 219.03C148.449 218.465 147.843 218.015 147.161 217.713C146.479 217.411 145.738 217.264 144.992 217.283C144.481 217.258 143.97 217.302 143.472 217.413L143.365 217.33V217.437C140.753 218.074 137.536 220.777 134.461 228.462C134.461 228.462 125.106 238.945 117.983 238.508C110.86 238.071 92.826 249.427 92.826 249.427C92.826 249.427 75.2317 260.771 71.4565 272.34C69.346 278.901 66.812 285.32 63.8702 291.557L42.0614 336.084L38.0605 371.498C38.0605 371.498 40.2806 387.209 39.8413 389.618C39.4021 392.026 48.9709 413.628 48.9709 413.628C48.9709 413.628 80.586 468.85 93.5027 471.683L94.4287 471.045C94.9839 471.324 95.5695 471.538 96.1739 471.683L98.8333 469.829C98.9979 471.904 98.9262 473.991 98.6196 476.05C96.8506 481.516 99.2963 517.095 102.407 524.071C105.517 531.048 104.413 622.533 104.413 622.533L103.974 630.595C103.974 630.595 103.974 630.855 104.081 631.304L103.974 633.216L104.294 633.381C104.627 635.946 104.519 638.549 103.974 641.078C102.858 644.619 102.407 654.618 102.407 654.618C102.407 654.618 93.5027 711.138 97.7292 722.494C101.956 733.85 105.529 746.292 105.529 746.292C105.529 746.292 109.981 760.457 105.743 762.818C101.504 765.179 89.5019 769.369 91.9475 775.26C94.2032 780.714 102.763 795.328 104.033 797.464L103.926 798.645L102.181 817.449C102.464 819.932 103.141 822.355 104.188 824.626C106.099 828.734 109.803 832.972 116.879 832.512C118.066 832.429 119.431 832.299 120.773 832.122C133.701 830.387 149.61 824.65 149.61 824.65C148.785 824.131 148.031 823.508 147.366 822.797V822.797C146.73 822.185 146.227 821.45 145.886 820.639C145.545 819.827 145.374 818.955 145.383 818.075C145.573 814.64 139.127 798.338 137.512 794.312L137.144 793.415C137.144 793.415 151.842 778.128 149.396 764.6C149.396 764.6 133.131 755.157 138.486 749.963C143.84 744.769 153.409 729.895 153.409 729.895C153.409 729.895 153.848 674.237 153.409 665.938C152.951 660.166 153.226 654.36 154.228 648.656C154.406 647.806 154.62 646.968 154.845 646.13C162.257 647.242 169.741 647.806 177.236 647.818C179.974 647.818 182.744 647.763 185.546 647.653C185.546 648.44 185.582 649.29 185.653 650.203C186.27 663.99 187.422 688.178 188.36 697.161C189.69 710.028 197.038 744.745 197.038 744.745C197.038 744.745 183.017 753.681 199.484 775.744C199.484 775.744 199.484 783.724 198.392 784.892C197.225 788.678 196.285 792.529 195.578 796.425C194.889 800.569 194.605 804.783 195.721 806.955C198.392 812.173 214.419 811.748 214.419 811.748C214.548 811.718 214.679 811.698 214.811 811.689C217.836 811.371 220.894 811.656 223.807 812.527C226.72 813.399 229.429 814.84 231.776 816.765C237.866 821.628 260.969 819.503 273.494 817.945C278.397 817.32 281.674 816.765 281.674 816.765C281.831 816.213 281.888 815.637 281.84 815.065V815.065C281.709 812.007 279.299 805.302 262.963 799.318C262.963 799.318 247.601 789.048 247.815 780.1H247.471H245.702C246.818 780.064 247.601 780.064 247.601 780.064C247.601 780.064 241.582 758.238 244.04 756.455C246.497 754.673 239.136 730.485 239.136 730.485C239.136 730.485 234.922 689.878 234.684 687.045C234.7 684.603 235.076 682.177 235.8 679.844L234.684 657.569C234.684 657.569 234.471 650.167 234.684 647.759C234.661 645.669 234.494 643.582 234.186 641.515C234.079 640.688 233.972 639.826 233.853 638.977C239.611 637.525 243.351 636.191 243.351 636.191L242.686 558.694C247.577 549.25 248.48 528.522 248.456 513.837C248.456 504.393 248.029 497.405 248.029 497.405L254.712 486.556C254.712 486.556 256.256 473.571 253.81 470.727C252.73 469.44 253.217 468.106 254.107 467.008C254.575 466.626 255.071 466.279 255.591 465.969C255.532 465.887 255.481 465.8 255.437 465.71C255.903 465.322 256.399 464.971 256.921 464.659C256.921 464.659 254.546 461 256.671 459.453C258.666 460.799 260.447 461.873 261.8 462.64C261.705 463.502 261.61 463.998 261.61 463.998L262.18 462.818C263.486 463.549 264.281 463.998 264.281 463.998C264.281 463.998 274.752 443.257 274.527 440.212C274.301 437.166 281.65 424.276 281.65 424.276C281.65 424.276 282.54 417.5 286.553 414.667C290.566 411.834 289.664 391.306 289.664 391.306C289.664 391.306 290.78 380.611 293.451 376.255C296.122 371.899 291.064 365.973 291.064 365.973ZM90.7128 356.872L90.9147 361.818C89.7275 359.917 88.8726 358.56 88.8726 358.56L90.7128 356.872Z" fill="url(#paint2_linear)"/>
<path d="M177.819 265.234C162.148 259.178 141.989 239.169 147.023 229.82C148.135 227.459 148.799 224.914 148.982 222.313C149.306 218.78 149.353 215.228 149.124 211.688C148.771 205.887 148.069 200.113 147.023 194.395C147.023 194.395 195.947 195.493 193.098 202.658C192.267 204.771 192.124 208.419 192.362 212.491C192.599 216.564 193.181 221.203 193.798 225.11C194.641 230.458 195.508 234.554 195.508 234.554C195.508 234.554 192.504 238.721 190.759 238.945C189.014 239.169 200.304 273.91 177.819 265.234Z" fill="#CF6F80"/>
<path d="M211.988 176.629C212.117 187.339 207.962 197.662 200.437 205.326C192.911 212.99 182.632 217.368 171.861 217.496C161.089 217.624 150.707 213.493 143 206.01C135.292 198.528 130.889 188.307 130.76 177.597C130.76 177.266 130.76 176.959 130.76 176.629C130.76 165.915 135.04 155.641 142.659 148.065C150.278 140.49 160.611 136.234 171.386 136.234C182.16 136.234 192.494 140.49 200.113 148.065C207.732 155.641 212.012 165.915 212.012 176.629H211.988Z" fill="#CF6F80"/>
<path d="M233.301 342.755L215.387 642L192.022 643.522L131.511 470.008L141.436 264.007L143.537 220.484C143.537 220.484 154.89 235.428 167.854 239.416C171.27 240.467 174.197 242.344 182.005 240.88C192.854 238.846 194.1 226.988 194.1 226.988L213.416 243.727L233.301 342.755Z" fill="#FCE18B"/>
<path d="M198.129 647.003C149.454 655.266 104.863 631.575 104.863 631.575L105.302 623.547C105.302 623.547 106.394 532.546 103.331 525.57C100.268 518.593 97.882 483.227 99.6271 477.785C101.372 472.343 93.2638 390.974 93.2638 390.974L91.946 357.922L44.1255 338.598L65.4951 294.295C68.3741 288.086 70.8563 281.703 72.927 275.184C76.6429 263.71 93.9524 252.401 93.9524 252.401C93.9524 252.401 111.642 241.116 118.622 241.541C125.603 241.966 134.816 231.566 134.816 231.566C141.595 214.414 149.062 222.122 149.062 222.122C149.062 222.949 148.35 223.303 148.73 224.66C153.953 242.922 185.818 302.983 186.4 304.046L190.329 398.081L194.176 517.141L198.129 647.003Z" fill="#55405F"/>
<path d="M254.916 456.546C254.916 456.546 257.089 459.805 254.916 461.268C252.744 462.732 255.118 466.486 255.118 466.486C255.118 466.486 249.669 469.649 252.067 472.518C254.465 475.386 252.946 488.265 252.946 488.265L246.416 499.114C246.416 499.114 246.808 506.066 246.843 515.463C246.843 530.124 245.977 550.735 241.181 560.131L241.833 637.227C241.833 637.227 218.885 645.572 199.676 643.023L196.838 519.311C196.838 519.311 200.982 449.157 202.525 435.7C203.423 428.713 203.784 421.669 203.606 414.629C203.606 414.629 202.953 393.569 200.768 383.807C200.768 383.807 198.394 341.452 198.144 329.73C198.038 324.123 198.334 307.762 198.667 292.204C199.035 275.193 199.45 259.151 199.45 259.151L193.728 224.587C193.728 224.587 199.45 224.587 200.768 226.346C201.348 226.896 201.984 227.383 202.668 227.798V227.798C210.147 232.827 236.574 248.291 236.574 248.291C236.574 248.291 251.165 254.075 254.726 262.362C258.288 270.649 260.662 276.527 262.36 278.888C264.058 281.249 264.984 292.345 264.984 292.345C264.984 292.345 270.018 312.767 273.947 316.226C277.877 319.685 280.714 341.641 280.714 341.641L245.989 368.792C245.989 368.792 242.938 413.956 242.273 415.703C241.608 417.45 254.916 456.546 254.916 456.546Z" fill="#55405F"/>
<path d="M188.235 112.493C182.066 109.607 175.049 109.062 168.504 110.958C165.215 111.926 162.117 113.496 158.781 114.287C151.658 115.999 143.347 114.146 137.233 118.289C133.838 120.65 131.796 124.38 129.896 128.016L125.147 136.999C122.559 141.921 119.948 146.927 118.867 152.345C117.787 157.763 118.44 163.831 121.895 168.198C124.4 171.362 128.127 173.357 130.858 176.343C132.498 178.164 133.742 180.303 134.51 182.625C135.278 184.947 135.555 187.402 135.322 189.836C138.409 188.655 138.717 184.488 138.788 181.183C138.922 175.336 139.938 169.542 141.804 163.996C142.887 160.341 144.727 156.951 147.206 154.045C148.454 152.598 150 151.434 151.738 150.63C153.477 149.825 155.368 149.4 157.285 149.382C162.034 149.547 166.296 152.817 170.997 152.416C174.559 152.121 177.717 149.712 181.302 149.228C184.463 148.931 187.622 149.819 190.158 151.719C192.668 153.613 194.867 155.883 196.676 158.448C203.158 166.947 208.418 176.886 208.726 187.546C210.068 188.514 212.003 187.239 212.668 185.728C213.333 184.217 213.356 182.446 214.199 181.006C215.173 179.342 217.037 178.445 218.497 177.193C222.201 174.018 223.127 168.67 222.985 163.819C222.842 158.967 221.892 154.045 222.818 149.276C223.376 146.36 224.635 143.61 225.323 140.717C226.012 137.825 226.095 134.579 224.469 132.088C222.094 128.441 217.096 127.709 212.739 127.367C207.788 126.942 203.36 127.485 200.202 123.341C198.716 121.182 197.048 119.152 195.216 117.274C194.563 116.648 188.235 112.753 188.235 112.493Z" fill="#512E4E"/>
</g>
<defs>
<linearGradient id="paint0_linear" x1="-235316" y1="218835" x2="-253657" y2="218835" gradientUnits="userSpaceOnUse">
<stop stop-color="#80B2FF"/>
<stop offset="0.14" stop-color="#69A1FB"/>
<stop offset="0.35" stop-color="#4D8DF6"/>
<stop offset="0.47" stop-color="#4285F4"/>
<stop offset="0.7" stop-color="#3575DF"/>
<stop offset="1" stop-color="#215DBE"/>
</linearGradient>
<linearGradient id="paint1_linear" x1="-226648" y1="210722" x2="-244314" y2="210722" gradientUnits="userSpaceOnUse">
<stop stop-color="#80B2FF"/>
<stop offset="0.14" stop-color="#69A1FB"/>
<stop offset="0.35" stop-color="#4D8DF6"/>
<stop offset="0.47" stop-color="#4285F4"/>
<stop offset="0.7" stop-color="#3575DF"/>
<stop offset="1" stop-color="#215DBE"/>
</linearGradient>
<linearGradient id="paint2_linear" x1="225042" y1="638856" x2="225042" y2="191911" gradientUnits="userSpaceOnUse">
<stop stop-color="#808080" stop-opacity="0.25"/>
<stop offset="0.54" stop-color="#808080" stop-opacity="0.12"/>
<stop offset="1" stop-color="#808080" stop-opacity="0.1"/>
</linearGradient>
</defs>
</svg>
